<svg xmlns="http://www.w3.org/2000/svg" viewBox="0 0 1000 1000"><path d="M919.05,298.52c-0.03,-19.07 -0.68,-38.35 -3.46,-57.17c-7.6,-51.34 -32.44,-73.22 -84.44,-75.04c-25.39,-0.89 -50.84,-0.15 -78.09,-0.15c0,-27.04 0.21,-49.89 -0.05,-72.72c-0.4,-34.48 -17.04,-53.89 -45.67,-53.78c-28.33,0.11 -45.08,19.77 -45.61,54.3c-0.37,23.48 -0.07,46.97 -0.07,71.03c-117.84,0 -231.37,0 -348.63,0c0,-24.82 0.43,-48.5 -0.1,-72.16c-0.78,-34.6 -17.84,-53.76 -46.4,-53.19c-27.42,0.56 -43.35,19.19 -44,52.44c-0.46,23.64 -0.09,47.29 -0.09,73.81c-17.83,0 -31.95,-0.29 -46.05,0.05c-61.66,1.48 -86.57,23.98 -93.79,84.92c-1.24,10.42 -1.5,21 -1.51,31.51c-0.11,173.18 -0.69,346.36 0.09,519.52c0.47,102.79 47.24,154.59 149.6,156.25c179.82,2.94 359.75,3.04 539.56,-0.1c101.09,-1.77 146.79,-53.52 148.77,-154.35c0.09,-4.78 0.13,-9.56 0.13,-14.35C919.22,625.73 919.32,462.12 919.05,298.52zM156.89,240.57c16.46,-0.88 30.59,-2.28 44.72,-2.29c198.93,-0.14 397.86,-0.02 596.79,-0.16c46.29,-0.03 46.36,-0.37 46.99,47c0.24,18.17 0.14,36.35 -0,54.51c-0.02,2.7 -1.13,5.39 -2.36,10.89c-229.27,0 -456.69,0 -686.14,0C156.89,314.07 156.89,278.51 156.89,240.57zM845.36,801.48c-0.32,64.1 -16.52,83.14 -81.42,83.76c-175.97,1.67 -351.97,1.66 -527.94,0c-64.81,-0.61 -81,-19.62 -81.32,-83.8c-0.59,-117.65 -0.25,-235.31 -0.2,-352.96c0,-5.64 0.93,-11.29 1.66,-19.62c230.24,0 457.62,0 687.01,0c0.9,8.12 2.4,15.32 2.4,22.53C845.65,568.09 845.94,684.79 845.36,801.48z" fill="#222"/> <path d="M635.6,502.1c-17.63,-14.92 -38.19,-9.39 -56.07,13.72c-4.68,6.05 -9.02,12.36 -13.51,18.56c-37.58,51.81 -75.16,103.6 -114.53,157.86c-20.97,-15.18 -38.49,-28.4 -56.56,-40.81c-22.14,-15.21 -43.02,-13.28 -55.91,4.33c-12.75,17.43 -8.29,38.38 12.89,54.36c25.95,19.59 52.37,38.59 78.96,57.3c27.4,19.28 43.44,16.92 63.17,-9.77c30.7,-41.54 60.79,-83.52 91.13,-125.34c17.98,-24.78 35.84,-49.63 53.89,-74.35C653.42,538.29 655.52,518.97 635.6,502.1z" fill="#222"/></svg>