<svg xmlns="http://www.w3.org/2000/svg" viewBox="0 0 1000 1000"><path d="M944.3,402.8c0,25.4 0,50.3 0,75.7c-0.5,1.5 -1.5,2.4 -1.5,3.9c-3.4,29.3 -11.2,57.6 -22,84.9c-23.4,59.6 -63.5,107.9 -110.3,149.9c-82,73.2 -171.3,136.7 -266,192.3c-14.6,8.8 -31.2,14.6 -47.8,19c-21,5.9 -41,-4.9 -47.4,-24.9c-3.9,-11.7 -4.9,-24.4 -4.4,-37.1c0.5,-12.7 4.4,-25.9 7.3,-38.6c2.4,-12.2 1.5,-14.2 -10.7,-17.1c-25.4,-5.9 -51.3,-10.3 -76.6,-17.1c-102.5,-27.8 -186.5,-83 -243.6,-173.3c-55.2,-86.9 -71.3,-181.1 -37.1,-279.7c32.2,-93.2 96.2,-160.6 182.1,-207.5C367.3,78.1 475.7,62.5 589.4,80.1c72.2,11.2 138.6,36.1 198.7,78.1c67.9,47.3 118.6,108.4 144,188.4C937,365.2 939.9,384.2 944.3,402.8zM494.2,428.2c0.5,0 1,-0.5 1.5,-0.5c1,1.5 2,2.4 2.9,3.9c22.5,30.8 44.9,62 67.4,92.7c2.4,3.4 4.9,6.3 7.8,8.8c6.3,4.4 13.2,5.4 20,2c8.3,-4.4 11.7,-11.2 11.7,-20c0,-51.3 0,-103 0,-154.3c0,-3.4 -0.5,-6.8 -2,-10.3c-2.9,-7.8 -9.3,-12.2 -17.6,-12.7c-7.8,-0.5 -16.6,4.9 -19,12.2c-1.5,4.4 -2,9.3 -2,14.2c0,26.4 0,52.7 0,79.1c0,2.4 -0.5,5.4 -0.5,9.8c-2.9,-3.4 -4.4,-5.9 -6.3,-7.8c-22,-29.8 -43.4,-60 -65.4,-89.8c-3.4,-4.9 -8.8,-9.8 -14.2,-11.7c-13.2,-4.4 -25.4,5.4 -25.4,19.5c0,50.8 0,101 0,151.8c0,2.4 0.5,4.9 1.5,7.3c2.9,9.3 10.7,15.1 19.5,14.6c9.3,-0.5 16.6,-6.8 18.1,-16.1c0.5,-3.9 1,-7.8 1,-11.7C494.2,481.8 494.2,455 494.2,428.2zM675.3,374.5c4.4,0 7.8,0 11.7,0c22.9,0 45.9,0 68.3,-0.5c12.2,-0.5 19,-9.3 19,-20c0,-10.7 -8.3,-19.5 -20,-19.5c-33.2,-0.5 -66.4,-0.5 -99.6,0c-11.7,0 -19.5,8.3 -19.5,19.5c0,53.2 0,106.4 0,159.6c0,11.7 7.8,19.5 19.5,19.5c34.2,0 68.8,0.5 103,-0.5c5.4,0 12.2,-3.9 15.6,-8.3c9.8,-12.7 1.5,-30.3 -15.1,-30.8c-24.4,-1 -49.3,-0.5 -73.7,-0.5c-2.9,0 -5.9,0 -9.3,0c0,-13.7 0,-25.9 0,-39.1c19.5,0 38.1,0 57.1,0c3.9,0 7.8,-0.5 11.7,-1.5c9.8,-2.4 15.1,-9.8 15.1,-19c0,-9.8 -5.9,-18.1 -16.1,-19c-19,-1.5 -38.1,-1 -57.1,-1.5c-3.4,0 -7.3,0 -10.7,0C675.3,400.3 675.3,388.1 675.3,374.5zM284.8,497.5c0,-4.4 0,-7.8 0,-11.2c0,-39.5 0,-79.6 0,-119.1c0,-4.4 -0.5,-8.3 -1,-12.7c-1,-7.3 -5.9,-12.2 -12.7,-14.6c-14.2,-4.9 -26.4,4.9 -26.8,22c0,50.8 0,101.5 0,152.8c0,15.1 7.8,22.9 23.4,23.4c22.9,0.5 46.4,0 69.3,0c4.4,0 8.8,-0.5 12.2,-2.4c8.8,-4.4 12.2,-12.7 9.8,-22c-2,-9.3 -9.3,-15.1 -19,-15.1C322.4,497 304.3,497.5 284.8,497.5zM378.5,437.4c0,24.4 0,49.3 0,73.7c0,4.4 0.5,8.8 2,12.7c2.4,7.8 10.7,13.7 19,13.2c8.3,0 16.6,-6.3 18.5,-14.2c1,-3.9 1.5,-8.3 1.5,-12.7c0,-48.3 0,-97.1 0,-145.5c0,-3.9 -0.5,-7.8 -1.5,-11.7c-2.9,-12.7 -17.6,-19 -29.3,-12.2c-7.8,4.9 -10.3,12.7 -10.3,21C378.5,387.1 378.5,412 378.5,437.4z" fill="#222"/></svg>