<svg xmlns="http://www.w3.org/2000/svg" viewBox="0 0 1276 1081"><path d="M661.83,720.73C542.06,720.03 434.33,744.85 336.53,807.25C323.78,816.47 310.31,825.69 296.14,834.2C255.75,859.73 227.4,852.64 209.68,807.97C183.46,744.14 160.07,681.03 137.39,616.49C94.87,502.32 53.05,388.86 10.53,274.69C-7.89,225.05 -4.35,214.41 38.88,183.92C250.78,36.41 486.78,-16.77 742.62,4.5C921.92,19.39 1085.63,81.09 1233.75,181.08C1281.23,212.28 1284.06,226.46 1264.93,278.94C1203.27,443.46 1143.03,608.69 1081.38,773.22C1077.13,784.57 1073.58,796.62 1068.63,806.55C1049.49,851.22 1020.43,859.73 980.04,832.78C923.34,795.2 865.93,761.16 800.74,742.01C774.51,734.21 762.47,737.05 753.25,765.42C741.91,798.75 740.5,827.11 760.34,856.18C797.9,909.37 796.48,961.14 759.63,1015.74C724.19,1067.51 668.21,1090.2 607.26,1077.44C536.39,1062.54 489.62,1002.98 490.33,929.23C491.04,859.73 538.52,800.87 609.39,790.23C651.9,785.27 651.9,752.64 661.83,720.73ZM634.9,98.81C580.32,99.52 520.8,103.78 460.56,113.7C343.63,134.98 234.49,177.53 133.85,239.93C118.97,249.15 108.34,258.37 116.84,278.23C169.28,418.64 221.02,558.33 272.05,698.75C278.42,715.77 288.35,718.61 304.65,710.1C419.45,643.44 542.77,615.07 674.59,622.17C690.89,622.87 700.8,617.2 705.77,600.89C736.95,509.41 769.55,419.35 798.61,327.16C818.45,262.63 817.03,264.76 882.23,286.03C912.71,295.96 912.71,309.43 904.21,334.26C871.6,425.03 841.84,516.51 808.53,606.57C799.32,630.68 801.44,642.73 829.79,649.82C882.23,661.88 930.42,683.86 975.78,712.23C992.08,721.45 995.63,719.32 1002,702.3C1053.74,561.89 1106.18,422.19 1159.34,281.77C1167.13,260.5 1161.46,250.57 1143.03,238.52C988.53,143.49 821.28,100.23 634.9,98.81ZM683.09,934.19C683.09,907.24 661.83,885.97 635.6,885.97C609.38,885.97 589.54,907.24 589.54,934.19C589.54,961.14 610.8,982.41 637.02,982.41C661.83,982.41 684.51,960.42 683.09,934.19Z" fill="#222"/></svg>