<svg xmlns="http://www.w3.org/2000/svg" viewBox="0 0 1000 1000"><path d="M146,664.3c-0,-0 -0,-0 -0.1,-0.1c-0,-0 -0,-0 -0,-0L146,664.3z" fill="#222"/> <path d="M333.8,69.6c0,0 0,0 0,0c0,0 0,0 0.1,0L333.8,69.6z" fill="#222"/> <path d="M766.6,460.4c-0,-6.9 -0.7,-14 -2.1,-20.8c-1.7,-8.2 -4.2,-16.3 -7.9,-23.9c-3.7,-7.5 -8.8,-14.5 -15.7,-20.2c-2.1,-1.7 -4.3,-3 -6.6,-4c-3.5,-1.6 -7.1,-2.7 -10.8,-3.7c-2.5,-0.7 -5,-1.4 -7.4,-2.2c0.4,-7.9 0.7,-15.8 0.7,-23.8c-0,-22.3 -2.1,-44.5 -8,-66.2c-5.9,-21.6 -15.8,-42.7 -31.2,-62.2c-18.5,-23.4 -40.3,-40.8 -64.7,-53.2c-23,-11.6 -48.3,-18.8 -75.3,-22.5c0.1,-1.4 0.2,-2.7 0.4,-3.9c0.2,-1.3 0.4,-2.4 0.8,-3.3c0.3,-0.7 0.6,-1.3 1.1,-1.9c0.7,-0.9 1.8,-1.7 3.7,-2.5c1.9,-0.8 4.7,-1.5 8.5,-1.9c3.9,-0.4 7.3,-1 10.4,-2.1c2.3,-0.8 4.4,-1.8 6.2,-3.2c1.4,-1 2.6,-2.2 3.7,-3.5c1.6,-2 2.7,-4.3 3.4,-6.7c0.7,-2.5 1,-5.1 1,-7.8c0,-1.3 -0.1,-2.5 -0.2,-3.9c-0.3,-3.7 -1.1,-7.3 -2.4,-10.6c-1,-2.5 -2.2,-4.8 -3.8,-6.9c-2.4,-3.2 -5.5,-5.8 -9.3,-7.6c-3.8,-1.8 -8.2,-2.7 -13,-2.7c-0.5,0 -1,0 -1.5,0c-10.6,0.4 -19.5,1.8 -27.2,4.4c-5.7,2 -10.8,4.7 -15.1,8.2c-3.2,2.6 -6,5.7 -8.5,9.2c-3.6,5.2 -6.4,11.3 -8.7,18.3c-2.3,7 -4,14.9 -5.5,23.8c-0.2,1.3 -0.5,2.1 -0.6,2.6c-0.2,0.4 -0.3,0.5 -0.3,0.6l-0.1,0.1c-0.1,0.1 -0.3,0.2 -0.9,0.4c-0.5,0.2 -1.3,0.3 -2.4,0.4c-26,3.3 -50.5,10.1 -72.8,21.1c-22.4,11.1 -42.6,26.4 -60.1,46.7c-15.2,17.6 -26.2,36.9 -33.6,57.5c-7.3,20.6 -11,42.5 -11.4,65.4c-0,0.3 -0,0.5 -0,0.8c-0,5.2 1,10.3 3.3,14.8c1.2,2.3 2.7,4.4 4.6,6.2c1.9,1.9 4.1,3.5 6.7,4.8c4.3,2.2 8.8,3.4 13.3,3.4c2.8,0 5.6,-0.5 8.3,-1.4c2.7,-0.9 5.3,-2.2 7.8,-3.9c2.5,-1.7 4.5,-3.6 6,-5.8c2.4,-3.2 3.7,-6.8 4.4,-10.3c0.8,-3.5 1,-7 1.2,-10.4c1.7,-31.5 11.5,-58.7 28.2,-80.4c16.7,-21.7 40.4,-37.9 70.2,-47.2c18.1,-5.6 36.3,-8.4 54.5,-8.4c17.1,0 34.2,2.5 51.3,7.4c29.9,8.6 54,24.1 71.3,44.9c17.3,20.9 27.9,47.2 30.4,78c0.7,9.1 0.9,18.4 0.9,27.7c0,10.1 -0.2,20.3 -0.2,30.5c0,3.6 0,7.2 0.1,10.8v-0c0,0.2 0,0.3 0,0.5c0,1.3 -0.1,2.2 -0.3,3c-0.1,0.6 -0.3,1 -0.5,1.4c-0.3,0.6 -0.7,1.1 -1.4,1.8c-0.7,0.6 -1.6,1.3 -3,2c-52.9,28.7 -105.5,57.9 -158.2,86.9c-56,30.8 -112.1,61.6 -168.1,92.5c-4.9,2.7 -8.9,6.4 -11.6,10.7c-2.7,4.3 -4.1,9.1 -4.1,14.1c-0,4.5 1.2,9.1 3.6,13.4c2.5,4.6 6,8.3 10.2,10.8c4.1,2.5 8.9,3.8 13.8,3.8c4.8,0 9.8,-1.2 14.5,-3.6h0c2.8,-1.4 5.3,-2.9 7.7,-4.3c88.7,-49.6 253.1,-140.4 341.9,-190c1.4,-0.8 2.8,-1.5 4.4,-2.3c0,0.1 0,0.2 0,0.3c0.3,2.1 0.4,3.9 0.4,5.6c-0,4.4 -0,8.8 -0,13.2c0,22.6 0,45.3 0,67.9c0,36.7 -0.1,73.4 -0.5,110c-0.2,14.9 -2.3,29.5 -5.6,44c-3.3,14.5 -7.7,29 -12.3,43.7c-9.2,27.5 -27.8,52.9 -53,73.7c-25.2,20.7 -56.9,36.8 -92,45.4l-0,0c-12.5,3.1 -25.2,4.6 -37.9,4.6c-10.3,0 -20.6,-0.9 -30.9,-2.6c-49.4,-8.1 -92.1,-33 -122.5,-68.4c-30.5,-35.4 -48.7,-81.3 -49.3,-131.5c-0.3,-25.6 -0.4,-51.1 -0.4,-76.7c0,-39.7 0.2,-79.4 0.3,-119.1c0,-1.8 0.2,-3.8 0.6,-6c0,-0.3 0.1,-0.6 0.1,-0.9c0.7,0.3 1.3,0.7 2,1c38.3,21 76.6,42.1 114.9,63.1c5.4,2.9 10.9,4.4 16.3,4.4c4.8,0 9.5,-1.2 13.5,-3.6c4,-2.4 7.4,-6 9.9,-10.4c2.6,-4.6 3.9,-9.4 3.9,-14.2c0,-5.1 -1.5,-10 -4.4,-14.4c-2.9,-4.3 -7.1,-8 -12.3,-10.9c-46.6,-25.7 -93.3,-51.2 -140,-76.7c-5.3,-2.9 -10.6,-4.5 -15.8,-4.5c-4.3,-0 -8.4,1.1 -12.2,3.2c-3.8,2.1 -7.2,5 -10.3,8.8c-7.5,8.9 -13,18.7 -16.6,29.1c-3.6,10.4 -5.3,21.4 -5.3,32.9c-0,34.2 -0.2,68.4 -0.2,102.6c0,29.2 0.1,58.4 0.4,87.6c0.2,18.6 2,37.4 5.5,55.6c11.7,61.1 45.2,112.9 90.4,149.4c45.3,36.5 102.5,57.8 162,57.8c21.6,0 43.5,-2.8 65.3,-8.7c56.8,-15.5 104.7,-48.6 138.3,-92.9c33.7,-44.3 53.2,-99.6 53.6,-159.5c0.2,-25.1 0.2,-50.1 0.2,-75.2C766.8,539 766.7,499.7 766.6,460.4z" fill="#222"/> <path d="M556.2,361.7c-3.3,4.8 -5.2,10.6 -5.2,16.7c0,0.2 0,0.4 0,0.7c0.1,4 1,7.9 2.6,11.4c2.4,5.3 6.2,9.8 11,13c4.7,3.2 10.4,5.1 16.5,5.1l0.2,-0l-0,-5l0,5c4.1,-0 8.1,-0.9 11.7,-2.5c5.4,-2.3 10,-6.2 13.2,-11c3.2,-4.8 5.2,-10.6 5.2,-16.7c0,-0.2 -0,-0.4 -0,-0.6c-0.1,-4 -1,-7.9 -2.6,-11.4c-2.4,-5.3 -6.2,-9.8 -11,-13c-4.7,-3.2 -10.4,-5.1 -16.5,-5.1l-0.2,0h0c-4.1,0 -8.1,0.9 -11.6,2.5C564.1,353 559.5,356.9 556.2,361.7z" fill="#222"/> <path d="M412.8,377.9c-0,0.1 -0,0.3 -0,0.4c-0,8.3 3.3,15.9 8.7,21.4c5.4,5.5 12.9,8.8 21.2,8.8v0l0,0l0,0h0h0c8.2,-0 15.6,-3.3 21,-8.7c5.4,-5.4 8.8,-12.8 8.8,-21l0,-0c0,-0.1 0,-0.2 0,-0.3c0,-8.4 -3.3,-16 -8.7,-21.5c-5.4,-5.5 -12.9,-8.9 -21.2,-8.9l-0.1,0h0c-8.2,0 -15.6,3.4 -21,8.7C416.3,362.3 412.9,369.7 412.8,377.9z" fill="#222"/></svg>